<svg width="44" height="44" viewBox="0 0 44 44" fill="none" xmlns="http://www.w3.org/2000/svg">
<path d="M44 24.9974C44 37.4913 34.2411 44 21.8111 44C9.38118 44 0 34.4373 0 21.9434C0 9.4496 11.4268 0 23.8568 0C36.2867 0 44 12.5036 44 24.9974Z" fill="#FFCF71"/>
<path d="M26.6153 24.4293C26.6153 26.4421 25.2906 34.325 19.9487 34.325C16.4371 34.325 16.1025 26.4421 16.1025 24.4293C18.1743 22.7974 16.8645 24.8805 20.376 24.8805C25.6324 24.4959 24.1863 22.5255 26.6153 24.4293Z" fill="#FFB4B4"/>
<path d="M26.6153 24.4384C26.6153 26.4512 25.2906 34.3341 19.9487 34.3341C16.4371 34.3341 16.1025 26.4512 16.1025 24.4384C18.1743 22.8065 16.4371 32.8811 19.9487 32.8811C25.2051 32.4965 24.1863 22.5345 26.6153 24.4384Z" fill="black"/>
<ellipse cx="14.8633" cy="15.094" rx="2.09401" ry="2.09402" fill="black"/>
<ellipse cx="29.6495" cy="15.3932" rx="2.35042" ry="2.39317" fill="black"/>
<path d="M29.6923 24.0189C29.6923 24.9042 25.6974 25.1372 20.8241 25.1372C15.9507 25.1372 12 24.4196 12 23.5343C12 22.649 15.7892 23.3479 20.6626 23.3479C25.536 23.3479 29.6923 23.1336 29.6923 24.0189Z" fill="black"/>
<path d="M30.9281 28.0078C30.0703 28.2354 29.3833 26.5571 28.8206 24.4367C28.258 22.3162 28.4973 20.4127 29.3551 20.1851C30.2129 19.9575 29.9732 21.7859 30.5358 23.9064C31.0984 26.0269 31.7859 27.7802 30.9281 28.0078Z" fill="black"/>
<path d="M21.829 26.9319C21.829 28.6785 21.0196 30.0943 20.5479 30.0943C20.0761 30.0943 20.1208 28.6785 20.1208 26.9319C20.1208 25.1854 20.5032 23.7695 20.9749 23.7695C21.4466 23.7695 21.829 25.1854 21.829 26.9319Z" fill="black"/>
</svg>
