<svg width="50" height="50" viewBox="0 0 50 50" fill="none" xmlns="http://www.w3.org/2000/svg">
<path d="M0 30.0801C0 45.3384 11.6005 50 25.097 50C38.5935 50 50 42.6357 50 27.3774C50 12.1191 41.2335 3.25325 26.4934 0C12.9969 0 0 14.8218 0 30.0801Z" fill="#4F9568"/>
<circle cx="2.05078" cy="2.05078" r="2.05078" transform="matrix(-1 0 0 1 43.1641 15.8333)" fill="black"/>
<circle cx="2.05078" cy="2.05078" r="2.05078" transform="matrix(-1 0 0 1 29.1016 17.8841)" fill="black"/>
<path d="M33.9844 27.3715C33.9844 28.2802 34.5528 29.0169 35.2539 29.0169C35.955 29.0169 36.5234 28.7266 36.5234 27.3715C36.5234 26.0164 35.955 25.7261 35.2539 25.7261C34.5528 25.7261 33.9844 25.3389 33.9844 27.3715Z" fill="black"/>
</svg>
